<svg viewBox="0 0 845 283" fill="none" xmlns="http://www.w3.org/2000/svg"><path d="M635.703 189.276l34.604 15.031.558-.556c-1.468-3.401-3.633-6.369-4.521-10.021-1.138-4.67-.379-9.255-.619-13.917-.603-11.761-.441-23.321-.441-35.072 0-8.658.748-11.492 8.93-15.386 1.658-.789 3.65-2.294 5.581-1.905 4.421.89 8.623 7.146 10.962 10.61 9.89 14.642 6.854 36.135-10.962 42.309 6.553 4.47 12.061 11.71 15.449 18.928 4.951 10.556 8.383 24.159 19.155 30.618.407-4.577-2.059-9.443-2.975-13.917-.87-4.239-.586-9.033-.882-13.361-1.339-19.505 3.472-43.538-5.101-61.793-3.851-8.214-11.62-12.977-16.716-20.041 14.517-6.454 16.281-22.44 21.477-35.072 1.2-2.911 3.929-4.515 5.313-7.237l-18.976-13.52-9.488-7.634c4.593 16.756 9.694 39.39-3.394 53.999-3.639 4.062-7.177 7.56-12.234 9.847-1.378.622-3.817 1.889-5.246.771-1.496-1.174-.893-4.512-.893-6.164 0-6.003-.664-11.845-.095-17.815 1.261-13.198-1.25-26.766 0-40.082.329-3.51-1.875-10.175.988-13.025 1.814-1.805 6.212-.746 8.595-1.449C661.126 33.634 649.026 15.598 642.959 0c-3.399 1.125-2.785 8.02-2.791 11.134v35.072c0 29.52.559 59.121.559 88.514v30.062c0 5.001.747 10.693-.38 15.587-.809 3.504-3.46 5.688-4.644 8.907zM538.032 6.124c-.06 7.099-1.883 15.312-5.204 21.71-3.281 6.324-9.601 11.104-8.646 18.928.641 5.246 5.995 8.526 9.217 12.247.875 1.01 2.312 3.66 3.957 3.385 1.507-.253 2.021-3.378 2.646-4.498 2.45-4.389 7.278-7.927 8.634-12.804-2.439-.586-5.23-.544-6.776-2.844-2.293-3.41-.787-8.965-.53-12.743.525-7.645.346-16.479-3.298-23.381zm277.387 78.494c-9.276-7.866-20.466-6.966-31.813-6.689-12.82.313-25.684.008-38.51.008-7.423 0-16.883-1.542-24 .557 5.855 15.52 3.902 32.453 3.907 48.989v81.278c0 3.872.687 8.508-.446 12.247-.653 2.161-3.851 4.893-3.505 7.119.29 1.886 3.628 2.864 5.068 3.624 4.699 2.476 9.164 5.096 13.395 8.316 14.042 10.687 31.439 22.514 37.394 39.951 3.31-1.032 5.068-5.641 7.021-8.351 4.554-6.317 9.617-12.446 15.114-17.969 6.72-6.755 14.595-13.046 22.515-18.356 2.545-1.704 9.198-3.423 10.515-6.201.971-2.046-2.428-6.511-2.992-8.69-1.691-6.538-.826-13.892-.826-20.597 0-24.596 1.613-49.511.536-74.041-.368-8.446-4.783-17.212-4.152-25.608.296-4.002 1.914-8.16 5.341-10.503 1.451-.99 3.884-1.263 4.956-2.692 1.669-2.216.636-7.399 1.552-10.186 1.864-5.674 6.982-9.979 8.511-15.587-12.446 1.083-25.986 11.283-29.581 23.38zm-411.337 0c-2.657-1.88-4.766-4.314-7.814-5.634-7.991-3.462-16.109-2.926-24.557-3.295-11.3-.494-22.733-1.092-34.046-1.092 1.785 2.777 5.065 3.833 6.221 7.237 1.424 4.194.314 9.54.498 13.918.656 15.499-2.809 34.376 3.23 48.989 9.549 23.105 49.031 25.346 62.555 5.567 6.111-8.938 8.989-19.331 7.049-30.062-1.184-6.554-4.505-14.007-4.573-20.597-.063-6.185 5.748-6.391 7.189-10.744.83-2.508-1.236-7.056-1.241-9.854-.01-5.966 1.887-9.281 4.465-14.474-10.642 1.064-16.361 10.848-18.976 20.04zM538.59 67.36c-1.188 2.357-2.744 5.167-4.655 7.11-4.098 4.168-12.389 2.91-17.67 2.91l4.275 8.908.19 18.371.536 36.185.022 16.701.574 6.873 6.124 1.798 15.627 3.019-3.611-7.237-.876-27.834-.536-66.804zm-35.72 1.114c-10.411 16.293-40.309-.125-44.65 22.267-.349-2.756-1.062-5.866-2.465-8.328-5.018-8.8-18.543-6.702-27.116-6.702 1.55 2.339 3.815 4.509 4.66 7.237 2.289 7.395.274 17.876.366 25.608.125 10.556 1.521 21.176 1.056 31.731-.361 8.173-2.644 19.574.616 27.278 0 0 2.964-2.494 7.814-4.03 4.849-1.535 23.999-.423 23.999-.423-1.573-3.16-4.791-4.894-6.087-8.351-2.452-6.542-1.819-13.729-1.733-20.597.117-9.216-.585-18.421 2.749-27.278 2.513-6.674 8.156-17.561 16.792-15.588-1.365 12.383.502 25.413.557 37.855.055 12.313-1.752 26.39 1.117 38.412 2.942-1.128 5.235-3.351 8.372-4.074 8.215-1.894 16.51.766 24.557 1.848 0 0-7.225-5.089-8.102-9.464-.877-4.375-1.944-60.123-1.944-60.123V76.267l-.558-7.793zM0 70.144c1.308 1.974 3.459 2.176 5.344 3.465 3.267 2.234 6.018 5.719 7.56 9.339 4.146 9.728 2.624 21.979 3.332 32.288 1.762 25.664 2.733 52.179 1.602 77.937-.372 8.466-.094 17.854-1.706 26.165-.496 2.558-4.818 7.307-4.162 9.454.753 2.463 6.568 4.212 8.68 5.421 7.643 4.37 14.876 9.533 21.767 15.001 7.89 6.259 15.79 14.234 21.603 22.453 1.807 2.555 4.928 10.443 8.03 11.272 1.877.503 3.288-2.251 4.131-3.478 2.79-4.056 5.854-7.953 9.06-11.69 9.136-10.646 21.095-20.338 33.081-27.643 4.725-2.879 16.439-6.69 18.977-11.326-10.663-3.954-8.039-14.838-8.394-23.938-.413-10.581.575-21.176.575-31.732 0-6.804-1.398-13.357.903-20.041 1.472-4.273 4.996-6.774 6.916-10.577l-33.488.557-20.65-.557c1.584-3.478 3.083-6.366 7.255-6.68-18.197-3.51-13.078-28.312-18.976-40.082h-.558c-1.07 3.286.422 6.144.547 9.463.24 6.291.01 12.633.01 18.928 0 26.151 2.233 52.266 2.233 78.494 0 7.99-.542 15.926-.558 23.938-.005 2.632-1.619 6.924 1.117 8.351 0-17.124 8.016-38.372 21.208-49.546v-.557c-13.901-.412-12.278-20.74-12.278-30.062l22.324.557c-6.952 9.128-4.479 27.353-4.292 38.412.06 3.579 1.131 7.658-.069 11.134-1.656 4.796-4.739 6.562-8.475 9.464 8.357 3.695 17.654 5.945 17.301 17.257-8.022-2.022-19.644 4.349-26.79 7.502-2.317 1.022-5.287 3.246-7.813 3.456-3.578.298-10.538-4.281-13.953-5.775-7.262-3.177-15.497-5.178-23.442-5.183 2.45-7.656 10.053-13.907 17.302-16.7v-1.114c-12.216-7.086-8.925-22.638-8.93-34.515-.008-19.884-1.116-39.722-1.116-59.566 0-11.767 1.688-22.736-7.256-31.732h66.975l-18.976 13.917c21.822-2.75 35.66 18.917 41.859 36.742h.559c0-16.266-2.381-32.15-.237-48.432 1.15-8.737.639-16.281 11.399-18.371l-12.279-.557-27.348-.008L0 70.144zm549.194 7.237c1.301 3.378 4.337 5.94 5.302 9.463 1.368 4.98.28 11.55.28 16.701 0 10.01.558 20.02.558 30.062 0 11.102-1.937 23.169 5.843 32.266 4.437 5.19 11.866 6.47 18.156 8.082 13.417 3.44 33.415 5.254 42.417 16.992 3.572-1.184 1.675-7.466 1.675-10.578 0-10.969.558-21.908.558-32.845-2.422 1.654-2.813 5.26-4.113 7.794-1.881 3.658-5.079 7.255-8.724 9.232-10.543 5.72-27.471 1.966-30.675-10.902-1.534-6.171-.184-12.707-.027-18.928.206-8.573-.53-17.069-.536-25.608 0-6.045 1.311-13.482-1.691-18.927 11.123 0 24.39-2.516 33.392 5.346 4.929 4.305 7.245 13.967 12.374 16.921V70.7s-2.983 4.8-8.372 6.684c-5.611 1.116-20.651.553-20.651.553l-45.766-.556zM145.67 230.472c6.182-10.553 15.97-14.936 26.79-19.95 11.897-5.514 23.835-10.298 36.279-14.425 6.441-2.137 12.299-5.85 18.976-7.377l-7.814-8.351v-1.113c2.424-2.113 1.116-9.171 1.116-12.247 0-12.247-.558-24.469-.558-36.742-3.377 1.968-4.628 11.308-6.892 15.03-3.487 5.736-9.997 11.262-15.433 15.173-2.558 1.839-7.319 2.916-8.372 5.982 2.932-.024 8.441-2.696 10.985-1.488 2.755 1.309 2.781 13.543.957 15.607-2.172 2.458-6.765 3.669-9.709 4.935-6.172 2.655-12.149 5.798-18.418 8.224 0-24.971-2.314-50.317-.609-75.154.521-7.571-2.316-19.268 2.996-25.586 7.174-8.53 16.942-6.345 26.635-6.145-1.059 2.807-2.938 5.274-3.238 8.35-.846 8.693 2.265 18.124-.394 26.721-2.72 8.794-9.823 11-15.721 17.352-8.095 8.719-7.498 20.541-1.831 30.524 2.004 3.53 5.451 7.784 9.464 8.907-2.235-5.625-7.69-9.484-7.714-16.144-.035-9.944 8.887-16.166 16.644-20.52 8.481-4.761 17.763-11.302 20.31-21.232 2.138-8.337.864-18.79.168-27.278-.331-4.028-1.704-10.16.045-13.917 1.335-2.866 4.263-4.487 6.825-6.124-2.912-1.219-6.911-.557-10.047-.557h-20.092c-12.818 0-33.808-4.94-44.084 4.064-11.169 9.786-7.264 28.836-7.264 42.142 0 37.111 2.927 74.357 0 111.339zm83.161-157.545c2.231 3.509 6.285 5.252 7.753 9.464 2.933 8.414.253 20.106.641 28.948 1.209 27.545.536 54.86.536 82.391L248 184.823l24.365-8.907c-9.35-4.446-8.003-13.841-7.844-22.825.281-15.851-2.908-32.089.03-47.876 5.332 6.425 7.435 15.433 9.429 23.382 2.249 8.961 5.176 18.056 6.104 27.278.69 6.854.463 15.259 2.885 21.711 3.493-11.018 3.066-24.657 4.622-36.185 1.813-13.422 7.007-24.637 12.68-36.742 2.153 9.022.423 19.244.022 28.391-.423 9.644 2.301 21.309.266 30.618-.595 2.725-2.75 4.63-3.637 7.237 7.593-.156 15.212-3.884 22.883-1.609 3.48 1.032 5.723 4.023 8.93 5.506 0-21.53-1.116-43.058-1.116-64.576 0-8.308-2.047-19.332.449-27.278 1.049-3.344 4.205-5.289 5.69-8.35-7.74-2.283-18.158-.558-26.232-.558-2.927 0-7.234-.78-9.886.648-7.919 4.266-13.252 17.72-14.671 26.074-2.393-6.326-3.111-13.314-7.215-18.928-10.034-13.724-31.965-8.907-46.923-8.907zm139.531 15.03c6.526 0 13.343-.802 18.968 3.23 4.022 2.883 6.123 7.827 7.636 12.358 4.026 12.057 4.029 29.501-2.866 40.639-3.951 6.382-14.314 10.374-19.439 2.781-2.715-4.021-2.066-11.975-2.067-16.698-.001-12.851 3.72-30.562-2.232-42.31zm426.965 125.814c5.263 1.515 9.711 5.178 13.015 9.464 1.044 1.352 3.204 3.997 2.015 5.81-1.255 1.913-6.77 2.648-8.891 3.334-7.735 2.499-16.102 8.738-23.999 9.918-2.584.386-6.095-1.731-8.372-2.795-5.743-2.687-11.263-5.54-17.302-7.545-1.797-.598-7.428-1.295-7.395-3.786.073-6.15 10.805-11.755 15.209-14.4v-.557c-12.195-8.037-8.936-21.565-8.93-34.515.006-19.297.558-38.554.558-57.896 0-9.492 1.206-19.041-.558-28.392 13.049-2.524 34.297-4.403 44.488 5.728 9.578 9.523 8.534 21.38 8.534 33.798 0 15.009-.742 30.095-1.111 45.092-.195 7.988 1.451 17.299-.653 25.051-1.267 4.668-4.66 7.516-6.608 11.691z" fill="#000000"/></svg>